<svg width="20" height="20" viewBox="0 0 20 20" fill="none" xmlns="http://www.w3.org/2000/svg">
<path d="M18.7997 2.79906C18.0336 3.33944 17.1854 3.75275 16.2877 4.02306C15.8059 3.46907 15.1656 3.07641 14.4533 2.8982C13.7411 2.71999 12.9913 2.76482 12.3054 3.02662C11.6194 3.28843 11.0305 3.75458 10.6181 4.36203C10.2057 4.96949 9.98986 5.68893 9.99971 6.42306V7.22306C8.59381 7.25951 7.20073 6.94771 5.94451 6.31542C4.6883 5.68312 3.60796 4.74997 2.79971 3.59906C2.79971 3.59906 -0.400293 10.7991 6.79971 13.9991C5.15213 15.1174 3.18943 15.6782 1.19971 15.5991C8.39971 19.5991 17.1997 15.5991 17.1997 6.39906C17.199 6.17622 17.1775 5.95394 17.1357 5.73506C17.9522 4.92985 18.5284 3.91323 18.7997 2.79906V2.79906Z" fill="white"/>
</svg>
