<svg width="132" height="132" viewBox="0 0 132 132" fill="none" xmlns="http://www.w3.org/2000/svg">
<g filter="url(#filter0_d_20_230)">
<path d="M107 51.001C107 73.6447 88.6437 92.001 66 92.001C25 92.001 25 92.001 25 51.001C25 28.3573 43.3563 10.001 66 10.001C88.6437 10.001 107 28.3573 107 51.001Z" fill="#2278D4"/>
</g>
<path d="M57.1494 43.8564C58.512 43.8564 59.6842 44.1908 60.666 44.8594C61.6562 45.528 62.418 46.5521 62.9512 47.9316C63.4928 49.3027 63.7637 51.2155 63.7637 53.6699C63.7637 56.1497 63.4886 58.0794 62.9385 59.459C62.3968 60.8385 61.6647 61.8542 60.7422 62.5059C59.8197 63.1491 58.6559 63.4707 57.251 63.4707C55.846 63.4707 54.6654 63.1449 53.709 62.4932C52.7526 61.8415 52.0036 60.8512 51.4619 59.5225C50.9202 58.1937 50.6494 56.3021 50.6494 53.8477C50.6494 50.4199 51.1784 47.9359 52.2363 46.3955C53.4128 44.7028 55.0505 43.8564 57.1494 43.8564ZM57.2383 47.2334C56.6374 47.2334 56.1042 47.4281 55.6387 47.8174C55.1732 48.1982 54.8177 48.8584 54.5723 49.7979C54.3268 50.7373 54.2041 52.1126 54.2041 53.9238C54.2041 56.2852 54.4834 57.9186 55.042 58.8242C55.609 59.7214 56.3411 60.1699 57.2383 60.1699C58.1016 60.1699 58.7871 59.7425 59.2949 58.8877C59.9128 57.8551 60.2217 56.1286 60.2217 53.708C60.2217 51.2536 59.9424 49.5609 59.3838 48.6299C58.8337 47.6989 58.1185 47.2334 57.2383 47.2334ZM69.0322 50.3438H65.5664C65.6595 48.3294 66.29 46.7467 67.458 45.5957C68.6344 44.4362 70.141 43.8564 71.9775 43.8564C73.1117 43.8564 74.1104 44.0977 74.9736 44.5801C75.8454 45.054 76.5394 45.7438 77.0557 46.6494C77.5804 47.5465 77.8428 48.4606 77.8428 49.3916C77.8428 50.5003 77.5254 51.6937 76.8906 52.9717C76.2643 54.2497 75.1133 55.7604 73.4375 57.5039L71.3428 59.7129H77.9951V63.001H65.0586V61.2998L70.835 55.4092C72.2314 53.9958 73.1582 52.8617 73.6152 52.0068C74.0807 51.1436 74.3135 50.3649 74.3135 49.6709C74.3135 48.9515 74.0723 48.359 73.5898 47.8936C73.1159 47.4196 72.5023 47.1826 71.749 47.1826C70.9873 47.1826 70.3525 47.4661 69.8447 48.0332C69.3369 48.6003 69.0661 49.3704 69.0322 50.3438Z" fill="#0F1320"/>
<defs>
<filter id="filter0_d_20_230" x="0" y="0.000976562" width="132" height="132" filterUnits="userSpaceOnUse" color-interpolation-filters="sRGB">
<feFlood flood-opacity="0" result="BackgroundImageFix"/>
<feColorMatrix in="SourceAlpha" type="matrix" values="0 0 0 0 0 0 0 0 0 0 0 0 0 0 0 0 0 0 127 0" result="hardAlpha"/>
<feOffset dy="15"/>
<feGaussianBlur stdDeviation="12.5"/>
<feColorMatrix type="matrix" values="0 0 0 0 0.133333 0 0 0 0 0.470588 0 0 0 0 0.831373 0 0 0 0.25 0"/>
<feBlend mode="normal" in2="BackgroundImageFix" result="effect1_dropShadow_20_230"/>
<feBlend mode="normal" in="SourceGraphic" in2="effect1_dropShadow_20_230" result="shape"/>
</filter>
</defs>
</svg>
