<svg width="20" height="20" viewBox="0 0 20 20" fill="none" xmlns="http://www.w3.org/2000/svg">
<g clip-path="url(#clip0_20_284)">
<path d="M17.8682 4.18581L19.4002 2.72021V2.39941H14.093L10.3106 11.8138L6.0074 2.39941H0.442595V2.72021L2.2322 4.87461C2.4066 5.03381 2.4978 5.26661 2.4746 5.50101V13.9674C2.5298 14.2722 2.4306 14.5858 2.2162 14.8074L0.200195 17.2506V17.5674H5.9162V17.2466L3.9002 14.8074C3.6818 14.585 3.5786 14.277 3.6226 13.9674V6.64421L8.6402 17.5714H9.2234L13.5378 6.64421V15.349C13.5378 15.5786 13.5378 15.6258 13.3874 15.7762L11.8354 17.2778V17.5994H19.365V17.2786L17.869 15.8138C17.7378 15.7146 17.6698 15.5482 17.6978 15.3866V4.61301C17.6698 4.45061 17.737 4.28421 17.8682 4.18581Z" fill="white"/>
</g>
<defs>
<clipPath id="clip0_20_284">
<rect width="19.2" height="19.2" fill="white" transform="translate(0.200195 0.399902)"/>
</clipPath>
</defs>
</svg>
