<svg width="20" height="20" viewBox="0 0 20 20" fill="none" xmlns="http://www.w3.org/2000/svg">
<g clip-path="url(#clip0_20_282)">
<path d="M17.4594 7.84621C16.853 7.84621 16.3194 8.10141 15.9266 8.499C14.4826 7.4846 12.5354 6.83181 10.3778 6.76221L11.4986 1.6374L15.0674 2.4502C15.0674 3.3366 15.7794 4.06061 16.653 4.06061C17.5434 4.06061 18.2594 3.3174 18.2594 2.4302C18.2594 1.543 17.5482 0.799805 16.6538 0.799805C16.0306 0.799805 15.493 1.1814 15.225 1.703L11.2834 0.816605C11.085 0.763005 10.8906 0.907005 10.8378 1.1086L9.60738 6.75821C7.46658 6.84861 5.54018 7.50061 4.09138 8.51581C3.69858 8.10141 3.14418 7.84621 2.53778 7.84621C0.288184 7.84621 -0.448616 10.9094 1.61138 11.9566C1.53858 12.2806 1.50578 12.6262 1.50578 12.971C1.50578 16.4118 5.32578 19.1998 10.0162 19.1998C14.7266 19.1998 18.5466 16.4118 18.5466 12.971C18.5466 12.6262 18.5106 12.2646 18.4218 11.9398C20.4402 10.8886 19.697 7.84781 17.4594 7.84621ZM4.88018 12.1742C4.88018 11.271 5.59218 10.5438 6.48658 10.5438C7.36018 10.5438 8.07298 11.2662 8.07298 12.1742C8.07298 13.0614 7.36098 13.7846 6.48658 13.7846C5.59618 13.7886 4.88018 13.0614 4.88018 12.1742ZM13.5514 16.0126C12.0786 17.507 7.92258 17.507 6.44898 16.0126C6.28658 15.8686 6.28658 15.6142 6.44898 15.4502C6.59058 15.3062 6.84178 15.3062 6.98338 15.4502C8.10818 16.6206 11.8394 16.6406 13.013 15.4502C13.1546 15.3062 13.4058 15.3062 13.5474 15.4502C13.713 15.615 13.713 15.8694 13.5514 16.0126ZM13.5186 13.7878C12.645 13.7878 11.933 13.0654 11.933 12.179C11.933 11.2758 12.645 10.5486 13.5186 10.5486C14.409 10.5486 15.125 11.271 15.125 12.179C15.121 13.0614 14.409 13.7878 13.5186 13.7878Z" fill="white"/>
</g>
<defs>
<clipPath id="clip0_20_282">
<rect width="19.2" height="19.2" fill="white" transform="translate(0.399902 0.399902)"/>
</clipPath>
</defs>
</svg>
