<svg width="12" height="12" viewBox="0 0 12 12" fill="none" xmlns="http://www.w3.org/2000/svg">
<path fill-rule="evenodd" clip-rule="evenodd" d="M6.70727 0.626267C6.31675 0.235743 5.68358 0.235743 5.29306 0.626267C4.90253 1.01679 4.90253 1.64996 5.29306 2.04048L8.25262 5.00004H1.3335C0.781211 5.00004 0.333496 5.44776 0.333496 6.00004C0.333496 6.55233 0.781211 7.00004 1.3335 7.00004H8.25262L5.29306 9.9596C4.90253 10.3501 4.90253 10.9833 5.29306 11.3738C5.68358 11.7643 6.31675 11.7643 6.70727 11.3738L11.3736 6.70748L11.3739 6.70715M11.591 5.61726C11.5422 5.49931 11.4698 5.38881 11.3739 5.29293L6.70727 0.626267M11.3761 6.70502C11.5558 6.52423 11.6668 6.2751 11.6668 6.00004C11.6668 5.86445 11.6398 5.73516 11.591 5.61726" fill="#22A75D"/>
</svg>
